# xmcd
#
# Track frame offsets:
#	150
#	12144
#	25615
#	41410
#	56277
#	68606
#	82095
#	94870
#	107970
#	121214
#	133823
#	144806
#	157272
#	168652
#	180925
#	193488
#	206693
#	220064
#	232599
#	244942
#	257788
#	270961
#	284576
#	298192
#	311404
#	323038
#
# Disc length: 4475 seconds
#
# Revision: 3
# Processed by: cddbd v1.5.2PL0 Copyright (c) Steve Scherf et al.
# Submitted via: EasyCDDAExtractor 11.1.0.1
#
DISCID=7511791a
DTITLE=Big Bill Broonzy - All The Classic Sides 1928-1937 - Disc 1
DYEAR=2003
DGENRE=Blues
TTITLE0=House Rent Stomp (1928)
TTITLE1=Big Bill Blues (1928)
TTITLE2=Down In The Basement Blues (1928)
TTITLE3=Starvation Blues (1928)
TTITLE4=Somebody's Been Using That Thing (1930)
TTITLE5=Black Cat Rag (1930)
TTITLE6=Pig Meat Strut (1930)
TTITLE7=Guitar Rag (1930)
TTITLE8=Saturday Night Rub (1930)
TTITLE9=I Can't Be Satisfied (1930)
TTITLE10=Grandma's Farm (1930)
TTITLE11=Skoodle Do Do (1930)
TTITLE12=Tadpole Blues (1930)
TTITLE13=Bow Leg Baby (1930)
TTITLE14=Skoodle Do Do (1930)
TTITLE15=Saturday Night (1930)
TTITLE16=Pig Meat Strut (alternate take) (1930)
TTITLE17=Papa's Gettin' Hot (1930)
TTITLE18=Police Station Blues (1930)
TTITLE19=They Can't Do That (1930
TTITLE20=No Good Buddy (1930)
TTITLE21=State Street Woman (1930
TTITLE22=Meanest Kind Of Blues (1930)
TTITLE23=I Got The Blues For My Baby (1930)
TTITLE24=The Banker's Blues (1930)
TTITLE25=How You Want It Done (1930)
EXTD=
EXTT0=
EXTT1=
EXTT2=
EXTT3=
EXTT4=
EXTT5=
EXTT6=
EXTT7=
EXTT8=
EXTT9=
EXTT10=
EXTT11=
EXTT12=
EXTT13=
EXTT14=
EXTT15=
EXTT16=
EXTT17=
EXTT18=
EXTT19=
EXTT20=
EXTT21=
EXTT22=
EXTT23=
EXTT24=
EXTT25=
PLAYORDER=
